<?xml version="1.0" encoding="utf-8"?>
<!-- Generator: Adobe Illustrator 25.3.1, SVG Export Plug-In . SVG Version: 6.00 Build 0)  -->
<svg version="1.1" id="Layer_1" xmlns="http://www.w3.org/2000/svg" xmlns:xlink="http://www.w3.org/1999/xlink" x="0px" y="0px"
	 viewBox="0 0 90 24" style="enable-background:new 0 0 90 24;" xml:space="preserve">
<style type="text/css">
	.st0{fill:#20CDA4;}
	.st1{fill:#FFFFFF;}
</style>
<g>
	<g>
		<path class="st0" d="M22.3,1.8h12.6v11.4c-2.1,0.7-4.2,1.1-6.3,1.1s-4.2-0.4-6.3-1.1V1.8z M23.4,18.7v-3.4h4.9v2.6
			c0,0.8,0.6,1.2,4.7,1.2c4,0,6.8-0.3,9.4-0.8v4.1c-2.4,0.4-5.9,0.8-9.4,0.8C25.9,23.2,23.4,21.6,23.4,18.7z M28.7,10.1
			c0.5,0,1-0.1,1.5-0.2v-4h-3v4C27.7,10,28.2,10.1,28.7,10.1z M37.4,1.3h4.9V16h-4.9V1.3z"/>
		<path class="st0" d="M45.3,18.9h8.3v-4.1h4.9v4.1h8.3v4.2H45.3V18.9z M45.9,10.8c5.3-0.2,7.7-1.2,7.7-3.4V7h-7.4v-4h7.4V0.9h4.9
			v2.1h7.4v4h-7.4v0.3c0,0.6-0.1,1.2-0.2,1.8c1.6,0.8,4.9,1.5,8.2,1.6L65.8,15c-4.8-0.3-7.6-1.1-10-2.4c-2.1,1.5-5.4,2.4-9.9,2.5
			V10.8z"/>
		<path class="st0" d="M69.5,1.8h9.6V12c-1.6,0.4-3.1,0.7-4.8,0.7s-3.2-0.2-4.8-0.7V1.8z M70.7,13.9h4.9v1.2h9.1v-1.2h4.9v8.4
			c-2,0.7-5.6,1.1-9.6,1.1c-4.1,0-7.5-0.4-9.4-1.1V13.9z M74.4,9.2c0.2,0,0.5,0,0.7-0.1V5.3h-1.5v3.8C73.9,9.2,74.2,9.2,74.4,9.2z
			 M80.1,19.8c2.1,0,4.3-0.2,4.7-0.4v-0.9h-9.1v0.9C76,19.6,78,19.8,80.1,19.8z M85.5,8.8h-1.3v4.3h-4V1.4h4v3.6h1.3V1.3h4.2v11.9
			h-4.2V8.8z"/>
	</g>
	<g>
		<path class="st0" d="M18.4,9c0,5-9,15-9,15s-9-10-9-15s4.1-9,9-9S18.4,4.1,18.4,9z"/>
		<circle class="st1" cx="9.3" cy="8.9" r="4.8"/>
	</g>
</g>
</svg>
